<svg width="32" height="32" viewBox="0 0 32 32" fill="none" xmlns="http://www.w3.org/2000/svg">
<path d="M7.30797 2.6561C7.1899 2.50422 7.04087 2.37921 6.87077 2.28935C6.70067 2.1995 6.5134 2.14686 6.3214 2.13495C6.1294 2.12303 5.93706 2.1521 5.75716 2.22023C5.57726 2.28836 5.41391 2.39399 5.27797 2.5301L3.20997 4.6001C2.24397 5.5681 1.88797 6.9381 2.30997 8.1401C4.06144 13.1153 6.91055 17.6323 10.646 21.3561C14.3698 25.0915 18.8868 27.9406 23.862 29.6921C25.064 30.1141 26.434 29.7581 27.402 28.7921L29.47 26.7241C29.6061 26.5882 29.7117 26.4248 29.7798 26.2449C29.848 26.065 29.877 25.8727 29.8651 25.6807C29.8532 25.4887 29.8006 25.3014 29.7107 25.1313C29.6209 24.9612 29.4958 24.8122 29.344 24.6941L24.73 21.1061C24.5677 20.9803 24.379 20.8929 24.178 20.8506C23.9771 20.8084 23.7692 20.8123 23.57 20.8621L19.19 21.9561C18.6053 22.1022 17.9928 22.0945 17.4121 21.9336C16.8313 21.7727 16.3021 21.4642 15.876 21.0381L10.964 16.1241C10.5375 15.6982 10.2286 15.1691 10.0674 14.5883C9.90617 14.0075 9.89809 13.3949 10.044 12.8101L11.14 8.4301C11.1898 8.23089 11.1937 8.02297 11.1514 7.82203C11.1092 7.62108 11.0218 7.43236 10.896 7.2701L7.30797 2.6561ZM3.76797 1.0221C4.11795 0.672001 4.53842 0.400362 5.00144 0.225224C5.46447 0.0500859 5.95945 -0.0245448 6.45353 0.00628779C6.94761 0.0371204 7.42947 0.172711 7.86713 0.404055C8.30478 0.6354 8.68822 0.957205 8.99197 1.3481L12.58 5.9601C13.238 6.8061 13.47 7.9081 13.21 8.9481L12.116 13.3281C12.0594 13.555 12.0625 13.7926 12.1248 14.0179C12.1872 14.2433 12.3068 14.4486 12.472 14.6141L17.386 19.5281C17.5516 19.6936 17.7574 19.8134 17.9831 19.8758C18.2088 19.9382 18.4468 19.941 18.674 19.8841L23.052 18.7901C23.5652 18.6618 24.1009 18.6518 24.6185 18.761C25.1362 18.8701 25.6222 19.0955 26.04 19.4201L30.652 23.0081C32.31 24.2981 32.462 26.7481 30.978 28.2301L28.91 30.2981C27.43 31.7781 25.218 32.4281 23.156 31.7021C17.8783 29.8452 13.0865 26.8238 9.13597 22.8621C5.17454 18.9121 2.15318 14.121 0.295965 8.8441C-0.428035 6.7841 0.221965 4.5701 1.70197 3.0901L3.76997 1.0221H3.76797Z" fill="#F7F4F2"/>
</svg>
